# xmcd
#
# Track frame offsets: 
#        150
#        25683
#        44761
#        72223
#        101961
#        121934
#        144866
#        168884
#        192430
#        209458
#
# Disc length: 3013 seconds
#
# Revision: 2
# Processed by: cddbd v1.5.2PL0 Copyright (c) Steve Scherf et al.
# Submitted via: ExactAudioCopy v0.99pb4
#
DISCID=8e0bc30a
DTITLE=La Mar Enfortuna - Convivencia
DYEAR=2007
DGENRE=Avantgarde
TTITLE0=La Puerta Del Rio
TTITLE1=Aman Minush
TTITLE2=Ya Kalbi Khalli Al Hal
TTITLE3=Pali Mou Kanis To Vari
TTITLE4=El Eliyahu
TTITLE5=Cacela Del Amor Que No Se Deja Ver
TTITLE6=Dhen Me Toumbaris
TTITLE7=Convivencia
TTITLE8=Persona Soy Yo, El Buen Sidi
TTITLE9=25 Rats And A Dove
EXTD=
EXTT0=
EXTT1=
EXTT2=
EXTT3=
EXTT4=
EXTT5=
EXTT6=
EXTT7=
EXTT8=
EXTT9=
PLAYORDER=
